<svg id="Capa_1" data-name="Capa 1" xmlns="http://www.w3.org/2000/svg" viewBox="0 0 359.94 356.69"><defs><style>.cls-1{fill:#fff;}</style></defs><title>lebanon</title><path class="cls-1" d="M243.28,68.85,237,78.24c-3.13,4.69-11,14.08-17.21,17.21-6.26,4.69-14.08,11-17.21,15.64l-6.26,6.26,6.26-1.56c3.13-1.56,7.82-1.56,9.39-3.13s3.13,0,3.13,1.56h0c-1.56,3.13-11,11-18.77,14.08s-18.77,11-20.34,14.08h6.26c4.69-1.56,7.82,0,9.39,3.13,3.13,4.69,1.56,7.82-4.69,7.82-7.82,0-17.21,7.82-18.77,12.52s-4.69,7.82-12.52,11c-14.08,6.26-31.29,17.21-32.85,21.9h0c0,4.69,11,4.69,28.16-1.56,3.13-1.56,4.69,0,7.82,6.26,3.13,7.82,3.13,7.82-4.69,18.77-6.26,7.82-11,11-15.64,12.52-11,1.56-14.08,4.69-28.16,18.77C104,259.72,97.78,266,96.22,266H94.66c1.56,1.56,7.82,6.26,12.52,6.26,3.13,0,11-3.13,15.64-7.82,11-7.82,11-7.82,15.64-3.13a14.2,14.2,0,0,1,4.69,11c0,4.69-3.13,7.82-15.64,14.08-9.39,4.69-21.9,14.08-31.29,23.47-12.52,12.52-15.64,14.08-21.9,14.08H68.06a19.36,19.36,0,0,1,3.13,4.69c1.56,1.56,6.26,3.13,9.39,3.13,9.39,0,39.11-11,48.5-18.77,9.39-6.26,17.21-7.82,23.47-3.13,11,6.26-7.82,18.77-40.68,29.72-12.52,3.13-23.47,7.82-25,7.82h0c0,1.56,0,3.13,1.56,4.69,3.13,4.69,21.9,4.69,36,0,6.26-1.56,21.9-7.82,32.85-14.08,21.9-11,21.9-11,29.72-6.26,18.77,9.39,17.21,26.6-4.69,53.19-9.39,12.52-18.77,17.21-32.85,21.9-6.26,1.56-17.21,12.52-17.21,17.21v1.56h6.26c1.56,0,1.56-1.56,3.13-3.13,4.69-6.26,14.08-11,25-11s23.47-6.26,34.42-15.64c9.39-7.82,17.21-11,23.47-6.26,3.13,1.56,6.26,3.13,11,0,7.82-3.13,12.52-1.56,12.52,4.69,0,3.13,3.13,6.26,6.26,7.82s9.39,7.82,14.08,11a27,27,0,0,0,6.26,4.69h0c0-1.56-1.56-4.69-3.13-7.82-1.56-1.56-1.56-4.69-1.56-6.26h17.21c14.08,1.56,15.64,3.13,23.47,12.52,4.69,4.69,7.82,7.82,11,9.39h6.26a1.53,1.53,0,0,0,1.56-1.56h0c0-1.56-9.39-9.39-18.77-17.21C288.65,388,284,380.18,284,355.15c0-15.64,0-20.34,4.69-23.47,6.26-6.26,9.39-6.26,23.47,1.56,11,6.26,14.08,6.26,37.55,4.69,26.6,0,26.6,0,39.11,7.82,7.82,4.69,15.64,9.39,20.34,12.52,7.82,6.26,15.64,6.26,18.77,1.56,1.56-6.26-12.52-18.77-42.24-34.42-28.16-15.64-31.29-18.77-18.77-26.6,7.82-4.69,7.82-3.13,20.34,3.13,9.39,4.69,14.08,6.26,20.34,4.69l7.82-1.56L398.16,291c-9.39-7.82-18.77-15.64-20.34-18.77-4.69-6.26-14.08-11-23.47-11a34.1,34.1,0,0,1-9.39-1.56h0c-3.13-4.69,4.69-7.82,28.16-7.82,29.72-1.56,34.42-4.69,14.08-11-7.82-3.13-20.34-6.26-28.16-7.82S346.53,230,345,226.86V225.3h0a4.85,4.85,0,0,1,1.56-3.13c1.56-1.56,7.82-1.56,20.34,0s20.34,3.13,21.9,1.56-4.69-6.26-17.21-14.08c-12.52-6.26-26.6-17.21-34.42-25-6.26-6.26-17.21-14.08-21.9-17.21-7.82-3.13-9.39-6.26-9.39-7.82,1.56-4.69,12.52-4.69,20.34,0,3.13,1.56,11,3.13,17.21,3.13h12.52l-7.82-3.13c-7.82-3.13-29.72-18.77-31.29-21.9h0c1.56,0,6.26-1.56,12.52,0h12.52l-23.47-14.08C305.86,114.22,298,109.53,288.65,108c-6.26-1.56-14.08-3.13-17.21-3.13-7.82-1.56-18.77-14.08-25-25ZM202.6,137.69h0c3.13,0,4.69,0,4.69,1.56h0c0,1.56-3.13,4.69-6.26,6.26-1.56,1.56-3.13,1.56-4.69,1.56h0v-4.69C197.91,139.25,199.47,137.69,202.6,137.69Zm59.45,6.26h0c3.13,0,6.26,1.56,6.26,4.69s-1.56,4.69-6.26,4.69c-3.13,0-4.69,0-6.26-1.56v-3.13C257.36,145.51,258.92,143.95,262.05,143.95Zm-17.21,1.56q4.69,0,4.69,4.69c0,4.69-1.56,6.26-9.39,7.82a35.24,35.24,0,0,1-11,1.56h0c-3.13-3.13,0-7.82,6.26-11C240.15,145.51,243.28,145.51,244.84,145.51Zm40.68,0c4.69,0,4.69,1.56,3.13,7.82,0,1.56-3.13,3.13-6.26,3.13-4.69,0-4.69-1.56-4.69-4.69,0-4.69,3.13-6.26,6.26-6.26Zm-67.27,11h0c6.26,0,3.13,9.39-4.69,14.08-6.26,4.69-12.52,6.26-14.08,4.69h0C197.91,169,212,158,218.25,156.46Zm50.06,23.47c3.13,0,4.69,3.13,3.13,7.82,0,3.13-3.13,4.69-6.26,4.69h-4.69c0-1.56,1.56-3.13,4.69-7.82C263.62,181.49,266.74,179.93,268.31,179.93ZM248,181.49h0c4.69,0,6.26,4.69,1.56,7.82-1.56,1.56-4.69,1.56-4.69,1.56h0a16.18,16.18,0,0,0-6.26-1.56l-6.26-3.13,6.26-3.13C241.71,183.06,246.41,181.49,248,181.49Zm42.24,4.69c3.13,0,4.69,0,7.82,1.56,4.69,1.56,6.26,3.13,4.69,9.39S298,205,285.52,200.27c-6.26-1.56-6.26-3.13-4.69-7.82C282.39,189.32,285.52,186.19,290.21,186.19Zm-93.87,1.56h0c9.39,0,11,1.56,6.26,7.82l-6.26,6.26c-3.13,3.13-4.69,1.56-6.26-1.56-3.13-4.69-3.13-7.82-1.56-9.39C188.52,189.32,191.65,187.75,196.34,187.75Zm-25,4.69c4.69,0,6.26,1.56,9.39,7.82l4.69,7.82-6.26,3.13c-6.26,1.56-7.82,1.56-12.52-4.69-3.13-4.69-4.69-7.82-3.13-9.39h0c1.56-3.13,3.13-4.69,7.82-4.69Zm147.06,23.47c4.69,0,9.39,3.13,7.82,7.82-1.56,6.26-7.82,7.82-14.08,3.13-3.13-3.13-3.13-3.13-1.56-7.82C313.68,217.48,315.24,215.91,318.37,215.91Zm-84.48,11h1.56c0,1.56,1.56,1.56,0,4.69-1.56,6.26-4.69,7.82-7.82,3.13C229.2,231.56,230.76,226.86,233.89,226.86Zm-26.6,6.26c1.56,0,4.69,1.56,7.82,3.13,1.56,1.56,3.13,3.13,3.13,4.69h0c-1.56,1.56-4.69,0-7.82-1.56s-4.69-4.69-4.69-6.26h1.56Zm43.8,0c1.56,0,1.56,0,3.13,3.13,1.56,1.56,4.69,6.26,4.69,9.39,1.56,6.26-1.56,9.39-7.82,6.26s-7.82-7.82-4.69-14.08C249.54,234.68,249.54,233.12,251.1,233.12Zm15.64,9.39c1.56,0,3.13,1.56,4.69,6.26v4.69h0c-3.13,0-4.69-3.13-4.69-7.82C265.18,244.07,265.18,242.51,266.74,242.51Zm-97,9.39h7.82c3.13,0,4.69,1.56,6.26,3.13h0v1.56c0,1.56-3.13,4.69-7.82,6.26s-11,4.69-15.64,6.26c-7.82,1.56-7.82,1.56-11-6.26a65.78,65.78,0,0,0-3.13-7.82h0C146.28,253.46,160.36,251.89,169.75,251.89Zm150.19,21.9c9.39,0,14.08,6.26,4.69,12.52-6.26,4.69-15.64,4.69-20.34,0-4.69-3.13-3.13-3.13,3.13-7.82C310.55,275.36,315.24,273.8,319.94,273.8Zm31.29,7.82h0c1.56,0,4.69,1.56,7.82,3.13,4.69,3.13,4.69,3.13-1.56,9.39-3.13,3.13-4.69,6.26-6.26,6.26h0a31.83,31.83,0,0,0-7.82-1.56c-4.69,0-7.82-3.13-7.82-4.69h0C335.58,289.44,346.53,281.62,351.22,281.62ZM191.65,291h0c7.82,0,11,4.69,11,14.08,0,12.52-7.82,11-11-1.56C188.52,292.57,188.52,291,191.65,291ZM237,294.13c3.13,0,12.52,1.56,14.08,3.13h0c0,1.56-3.13,4.69-4.69,7.82l-4.69,6.26L238.58,302c-1.56-1.56-3.13-6.26-1.56-7.82Zm-21.9,4.69h3.13c3.13,0,4.69,3.13,6.26,4.69v6.26h0c-1.56,0-3.13-1.56-4.69-6.26-4.69-1.56-6.26-4.69-4.69-4.69Z" transform="translate(-68.06 -68.85)"/></svg>