<svg width="20" height="20" viewBox="0 0 20 20" fill="none" xmlns="http://www.w3.org/2000/svg">
<path d="M9.7982 0.895447L9.47293 1.38445C9.24063 1.73616 8.93956 2.03723 8.58785 2.26953C8.25737 2.49969 7.95963 2.77361 7.70278 3.0838L7.37751 3.40907L7.70278 3.3272C7.86652 3.24533 8.10991 3.24533 8.19178 3.16346C8.27365 3.08159 8.35552 3.16346 8.35552 3.24533C8.09023 3.57465 7.74627 3.83186 7.35538 3.99322C6.94825 4.15696 6.37737 4.56409 6.29772 4.72562H6.62298C6.6658 4.70402 6.71247 4.69113 6.76029 4.68768C6.80812 4.68422 6.85616 4.69029 6.90163 4.70551C6.9471 4.72074 6.9891 4.74483 7.02521 4.77638C7.06132 4.80794 7.09081 4.84634 7.11199 4.88936C7.27573 5.13276 7.19386 5.29649 6.86859 5.29649C6.66503 5.31745 6.46962 5.38762 6.29923 5.50096C6.12884 5.61429 5.98859 5.76739 5.89058 5.94703C5.80871 6.19042 5.64718 6.35416 5.24005 6.5179C4.50765 6.84317 3.61151 7.40298 3.52964 7.65744C3.52964 7.90083 4.10051 7.90083 4.99444 7.57557C5.15818 7.4937 5.23784 7.57557 5.40158 7.90084C5.56531 8.30797 5.56532 8.30797 5.15818 8.87884C4.9588 9.17306 4.67488 9.39988 4.34391 9.52938C3.77303 9.61125 3.61151 9.77277 2.87911 10.5074C2.55384 10.8327 2.22857 11.1579 2.1467 11.1579H2.06483C2.24378 11.3297 2.47061 11.4431 2.71537 11.4832C3.02231 11.4334 3.30655 11.2905 3.52964 11.0738C4.10051 10.6667 4.10051 10.6667 4.34391 10.9101C4.42344 10.9819 4.4864 11.0702 4.52843 11.1687C4.57046 11.2673 4.59055 11.3739 4.5873 11.481C4.5873 11.7244 4.42357 11.8881 3.77303 12.2134C3.17419 12.5399 2.62567 12.9513 2.14449 13.4348C1.49396 14.0853 1.33022 14.1672 1.00495 14.1672H0.679688C0.745858 14.2399 0.801023 14.3219 0.843427 14.4106C0.986562 14.5125 1.15679 14.5695 1.33243 14.5743C1.82144 14.5743 3.36811 14.0034 3.85712 13.5963C4.34612 13.271 4.74219 13.1892 5.07852 13.4326C5.6494 13.7578 4.67139 14.4106 2.96098 14.9815C2.31044 15.1452 1.73957 15.3886 1.6577 15.3886C1.65239 15.4327 1.65698 15.4774 1.67114 15.5195C1.68531 15.5616 1.70868 15.6001 1.73957 15.632C1.90331 15.8754 2.8791 15.8754 3.61151 15.632C4.20575 15.4485 4.77905 15.203 5.32192 14.8996C6.46146 14.3287 6.46146 14.3287 6.8708 14.5743C7.84881 15.0633 7.75588 15.9595 6.62741 17.3424C6.1384 17.9929 5.6494 18.2275 4.917 18.4819C4.59173 18.5638 4.03192 19.1325 4.03192 19.367V19.4821H4.35718C4.43905 19.4821 4.43905 19.4002 4.52092 19.3183C4.68143 19.1315 4.88191 18.9832 5.10751 18.8844C5.33311 18.7856 5.57806 18.7388 5.8242 18.7475C6.39507 18.7475 7.04561 18.4222 7.61648 17.9332C8.10549 17.526 8.50156 17.3623 8.83789 17.6079C8.92079 17.6683 9.02073 17.7009 9.12333 17.7009C9.22592 17.7009 9.32586 17.6683 9.40876 17.6079C9.8159 17.4442 10.0593 17.5261 10.0593 17.8513C10.0749 17.941 10.113 18.0254 10.1698 18.0965C10.2266 18.1677 10.3005 18.2234 10.3846 18.2585C10.5483 18.3403 10.8736 18.6656 11.117 18.8293C11.213 18.9258 11.3226 19.0078 11.4422 19.0727C11.4098 18.9291 11.3545 18.7917 11.2785 18.6656C11.2137 18.5702 11.1847 18.455 11.1966 18.3403H12.0817C12.8141 18.4222 12.896 18.5041 13.3031 18.9909C13.4687 19.1807 13.661 19.3454 13.874 19.4799H14.1992C14.2101 19.4802 14.2209 19.4783 14.2309 19.4742C14.241 19.4702 14.2501 19.4642 14.2578 19.4566C14.2655 19.4489 14.2715 19.4397 14.2755 19.4297C14.2795 19.4196 14.2814 19.4088 14.2811 19.398C14.2811 19.3161 13.7921 18.909 13.3031 18.5129C12.1636 17.5349 11.918 17.1278 11.918 15.8267C11.918 15.0124 11.918 14.769 12.1614 14.6053C12.4866 14.28 12.6504 14.28 13.3828 14.6872C13.9536 15.0124 14.1152 15.0124 15.3366 14.9306C16.7217 14.9306 16.7217 14.9306 17.3722 15.3377C17.7794 15.5811 18.1865 15.8267 18.4299 15.9882C18.837 16.3135 19.2442 16.3135 19.4079 16.0701C19.4898 15.7448 18.7574 15.0921 17.2085 14.2778C15.7437 13.4635 15.58 13.2998 16.2305 12.8927C16.6376 12.6493 16.6376 12.7289 17.2882 13.0564C17.7772 13.2998 18.0206 13.3817 18.3458 13.2998L18.753 13.2179L17.8679 12.4855C17.3789 12.0784 16.8899 11.6713 16.8102 11.5075C16.6609 11.3287 16.474 11.1849 16.263 11.0863C16.0519 10.9877 15.8218 10.9366 15.5888 10.9366C15.4228 10.9324 15.2582 10.9049 15.0998 10.8548C14.9361 10.6114 15.3432 10.4476 16.5646 10.4476C18.1135 10.3658 18.3569 10.2042 17.297 9.87677C16.82 9.7035 16.3302 9.56738 15.8322 9.46963C15.4251 9.38776 15.1817 9.30589 15.0998 9.14437V9.0625C15.1056 8.99959 15.1348 8.94116 15.1817 8.89876C15.2636 8.81689 15.5888 8.81689 16.2393 8.89876C16.8899 8.98063 17.297 9.0625 17.3789 8.98063C17.4608 8.89876 17.1355 8.65536 16.4938 8.24823C15.8376 7.90104 15.2341 7.46221 14.7015 6.94495C14.3461 6.61977 13.965 6.32379 13.562 6.05987C13.1549 5.89613 13.073 5.73461 13.073 5.65274C13.1549 5.40934 13.7235 5.40934 14.1306 5.65274C14.4134 5.76013 14.7133 5.81559 15.0157 5.81648H15.6663L15.2591 5.65274C14.852 5.489 13.7102 4.67473 13.6306 4.5132C13.8452 4.46914 14.0665 4.46914 14.2811 4.5132H14.9316L13.7102 3.7808C13.0597 3.29179 12.6526 3.0484 12.1614 2.96653C11.8715 2.887 11.5754 2.83222 11.2763 2.80279C10.8691 2.72092 10.2983 2.07039 9.973 1.49951L9.7982 0.895447ZM7.68065 4.48886C7.84439 4.48886 7.92405 4.48886 7.92405 4.57073C7.92405 4.6526 7.76031 4.81413 7.59878 4.896C7.56685 4.92688 7.52843 4.95026 7.48633 4.96442C7.44422 4.97858 7.39949 4.98318 7.35538 4.97787V4.73447C7.43725 4.57073 7.51912 4.48886 7.68065 4.48886ZM10.7784 4.81413C10.9422 4.81413 11.1037 4.896 11.1037 5.05752C11.1037 5.21905 11.0218 5.30092 10.7784 5.30092C10.6147 5.30092 10.535 5.30092 10.4532 5.21905V5.05531C10.5306 4.896 10.6125 4.81413 10.7762 4.81413H10.7784ZM9.89334 4.896C9.92616 4.89251 9.95934 4.89641 9.99046 4.90741C10.0216 4.91841 10.0498 4.93623 10.0732 4.95957C10.0965 4.9829 10.1143 5.01116 10.1253 5.04228C10.1363 5.07339 10.1402 5.10658 10.1367 5.13939C10.1367 5.38279 10.0549 5.46466 9.64773 5.54653C9.46295 5.60375 9.27028 5.63138 9.07686 5.6284C8.91312 5.46466 9.07686 5.22126 9.40212 5.05752C9.53995 4.95375 9.70754 4.89711 9.88007 4.896H9.89334ZM12.0109 4.896C12.2543 4.896 12.2543 4.97787 12.1746 5.30313C12.1746 5.385 12.0109 5.46687 11.8494 5.46687C11.606 5.46687 11.606 5.385 11.606 5.22347C11.6019 5.17974 11.6075 5.13564 11.6224 5.09431C11.6373 5.05299 11.6611 5.01546 11.6922 4.9844C11.7232 4.95334 11.7607 4.92951 11.8021 4.91461C11.8434 4.89971 11.8875 4.89411 11.9312 4.89821L12.0109 4.896ZM8.49713 5.46687C8.8224 5.46687 8.66087 5.95588 8.25374 6.19927C7.92847 6.44267 7.6032 6.52454 7.52133 6.44267C7.43725 6.1174 8.16965 5.5421 8.49713 5.46687ZM11.1037 6.68828C11.2674 6.68828 11.3471 6.85202 11.2674 7.09541C11.2674 7.25915 11.1037 7.33881 10.9422 7.33881H10.6988C10.6988 7.25694 10.7806 7.17507 10.9422 6.93167C10.8581 6.76793 11.0196 6.68828 11.1015 6.68828H11.1037ZM10.046 6.77015C10.2894 6.77015 10.3713 7.01354 10.1279 7.17728C10.0579 7.2304 9.97238 7.25916 9.88449 7.25915C9.78265 7.21035 9.67204 7.18251 9.55923 7.17728L9.23396 7.01354L9.55923 6.84981C9.71633 6.84981 9.96194 6.76794 10.046 6.76794V6.77015ZM12.2454 7.01354C12.3862 7.00111 12.5276 7.02953 12.6526 7.09541C12.896 7.17728 12.9778 7.25915 12.896 7.58442C12.8141 7.90969 12.6526 7.99155 12.0109 7.74816C11.6856 7.66629 11.6856 7.58442 11.7675 7.34102C11.8083 7.24793 11.8742 7.16802 11.9579 7.1102C12.0415 7.05237 12.1395 7.01891 12.241 7.01354H12.2454ZM7.35538 7.09099C7.84439 7.09099 7.92626 7.17286 7.68065 7.49812L7.35538 7.82339C7.19164 7.98713 7.11199 7.90526 7.03012 7.74152C6.86638 7.49812 6.86638 7.33439 6.94825 7.25252C6.94825 7.17507 7.11199 7.09099 7.35538 7.09099ZM6.06317 7.33881C6.30657 7.33881 6.38844 7.42068 6.55218 7.74595L6.79557 8.15308L6.47031 8.31682C6.14504 8.39869 6.06317 8.39869 5.81977 8.07342C5.65604 7.83003 5.57638 7.66629 5.65604 7.58442C5.68524 7.50286 5.7417 7.43388 5.81588 7.38913C5.89005 7.34438 5.9774 7.32661 6.06317 7.33881ZM13.7169 8.56022C13.9603 8.56022 14.2059 8.72396 14.124 8.96735C14.0421 9.29262 13.7169 9.37449 13.3916 9.13109C13.2279 8.96735 13.2279 8.96735 13.3097 8.72396C13.4624 8.63987 13.5443 8.56022 13.708 8.56022H13.7169ZM9.32026 9.13109H9.38221C9.38221 9.21296 9.46408 9.21296 9.38221 9.37449C9.30034 9.69975 9.13882 9.78162 8.97508 9.53823C9.0658 9.37449 9.14766 9.13109 9.30919 9.13109H9.32026ZM7.93511 9.45636C8.0787 9.48881 8.21616 9.54409 8.34225 9.6201C8.42411 9.70197 8.50598 9.78384 8.50598 9.86349C8.42411 9.94536 8.26259 9.86349 8.09885 9.78162C8.03525 9.75078 7.97997 9.70516 7.93762 9.64857C7.89527 9.59198 7.8671 9.52607 7.85545 9.45636H7.93732H7.93511ZM10.2142 9.45636C10.2961 9.45636 10.2961 9.45636 10.3779 9.6201C10.5062 9.75504 10.591 9.9254 10.6213 10.1091C10.7032 10.4344 10.5394 10.5981 10.2142 10.4344C10.1432 10.4106 10.0786 10.3707 10.0257 10.3177C9.97284 10.2647 9.933 10.2001 9.90938 10.129C9.88577 10.058 9.87902 9.98237 9.88968 9.90824C9.90034 9.83412 9.92811 9.7635 9.97079 9.70197C10.1235 9.53823 10.1235 9.45636 10.2053 9.45636H10.2142ZM11.0285 9.94536C11.1103 9.94536 11.1922 10.0272 11.2719 10.2706V10.514C11.1081 10.514 11.0285 10.3503 11.0285 10.1069C10.9311 10.025 10.9311 9.94536 11.0196 9.94536H11.0285ZM5.97245 10.4322H6.37959C6.44258 10.4335 6.50448 10.4489 6.56076 10.4772C6.61704 10.5055 6.66627 10.5461 6.70485 10.5959V10.6778C6.70485 10.7596 6.54111 10.9212 6.29772 11.003C6.05432 11.0849 5.72684 11.2464 5.48344 11.3283C5.07631 11.4102 5.07631 11.4102 4.91257 11.003C4.86676 10.864 4.81206 10.728 4.74883 10.5959C4.75104 10.514 5.48344 10.4322 5.97245 10.4322ZM13.7899 11.5717C14.2789 11.5717 14.5223 11.897 14.0333 12.2222C13.8826 12.341 13.6963 12.4056 13.5045 12.4056C13.3126 12.4056 13.1263 12.341 12.9756 12.2222C12.7322 12.0585 12.8119 12.0585 13.1394 11.8151C13.3161 11.6539 13.5485 11.5674 13.7877 11.5739L13.7899 11.5717ZM15.4184 11.9788C15.562 12.0113 15.6995 12.0666 15.8256 12.1426C16.069 12.3063 16.069 12.3063 15.7437 12.6316C15.58 12.7953 15.5003 12.9568 15.4184 12.9568C15.2867 12.9126 15.1499 12.8851 15.0113 12.875C14.7679 12.875 14.6042 12.7112 14.6042 12.6316C14.602 12.3882 15.1728 11.981 15.4162 11.981L15.4184 11.9788ZM7.11199 12.4678C7.51912 12.4678 7.68286 12.7112 7.68286 13.2002C7.68286 13.8508 7.27573 13.7711 7.11199 13.1184C6.94825 12.5497 6.94825 12.4678 7.11199 12.4678ZM9.47293 12.6316C9.72538 12.6381 9.97414 12.6937 10.2053 12.7953C10.2053 12.8772 10.0416 13.0387 9.96194 13.2024L9.71854 13.5277L9.5548 13.0387C9.47293 12.9568 9.39106 12.7134 9.47293 12.6316ZM8.33339 12.875H8.49713C8.66087 12.875 8.74053 13.0387 8.8224 13.1184V13.4436C8.74053 13.4436 8.65866 13.3618 8.579 13.1184C8.33561 13.0365 8.25374 12.875 8.33561 12.875H8.33339Z" fill="#496725"/>
</svg>
