<svg id="Layer_1" data-name="Layer 1" xmlns="http://www.w3.org/2000/svg" viewBox="0 0 50 50"><defs><style>.cls-1{fill:none;stroke:#1f1e40;stroke-miterlimit:10;stroke-width:2px;}</style></defs><title>dashboard</title><path class="cls-1" d="M21.85,11.25H13.26a2,2,0,0,0-2,2v5.16a2,2,0,0,0,2,2h8.59a2,2,0,0,0,2-2V13.26A2,2,0,0,0,21.85,11.25Z"/><path class="cls-1" d="M21.85,22.71H13.26a2,2,0,0,0-2,2v12a2,2,0,0,0,2,2h8.59a2,2,0,0,0,2-2v-12A2,2,0,0,0,21.85,22.71Z"/><path class="cls-1" d="M36.74,29.58H28.15a2,2,0,0,0-2,2v5.16a2,2,0,0,0,2,2h8.59a2,2,0,0,0,2-2V31.59A2,2,0,0,0,36.74,29.58Z"/><path class="cls-1" d="M36.74,11.25H28.15a2,2,0,0,0-2,2v12a2,2,0,0,0,2,2h8.59a2,2,0,0,0,2-2v-12A2,2,0,0,0,36.74,11.25Z"/></svg>