<svg id="Layer_1" data-name="Layer 1" xmlns="http://www.w3.org/2000/svg" viewBox="0 0 50 50"><defs><style>.cls-1{fill:#377aff;}</style></defs><title>donations</title><path class="cls-1" d="M25,23.75a1.25,1.25,0,0,1-.49-2.4,1.71,1.71,0,0,1,1.83.55,1.25,1.25,0,1,0,1.73-1.79A4.9,4.9,0,0,0,26.29,19V17.52a1.25,1.25,0,1,0-2.49,0V19l-.21.08A3.74,3.74,0,0,0,25,26.25a1.25,1.25,0,0,1,.43,2.42,1.92,1.92,0,0,1-2-.87,1.25,1.25,0,0,0-1.91,1.6A5.18,5.18,0,0,0,23.79,31v1.45a1.25,1.25,0,1,0,2.49,0V31h0A3.74,3.74,0,0,0,25,23.75Z"/><path class="cls-1" d="M25,40.17A15.17,15.17,0,1,1,40.17,25,15.18,15.18,0,0,1,25,40.17Zm0-28.09A12.92,12.92,0,1,0,37.92,25,12.94,12.94,0,0,0,25,12.08Z"/></svg>