<svg id="Layer_1" data-name="Layer 1" xmlns="http://www.w3.org/2000/svg" viewBox="0 0 50 50"><defs><style>.cls-1{fill:#1f1e40;}</style></defs><title>volunteers-idle</title><path class="cls-1" d="M30.63,15.62a2.12,2.12,0,0,0-.73.1V12.58a2.1,2.1,0,0,0-2.73-2,2.1,2.1,0,0,0-2.09-2.06h0a2.1,2.1,0,0,0-1.85,1.1,2.08,2.08,0,0,0-.89-.2h0a2.1,2.1,0,0,0-2.1,2.1v1.06a2.09,2.09,0,0,0-.64-.1h-.05a2.1,2.1,0,0,0-2.1,2.07c0,.48-.09,5.26,0,7.18a10,10,0,0,0,1.89,5.86,1.2,1.2,0,0,1,.28.76v2.39h0A1.22,1.22,0,0,0,18.33,32v1.56a1.07,1.07,0,0,0-.75,1v6.21a.73.73,0,0,0,.73.73H29.92a.73.73,0,0,0,.73-.73v-5.8a1.47,1.47,0,0,0-.75-1.28V32a1.22,1.22,0,0,0-1.15-1.21V28.81a1.16,1.16,0,0,1,.44-.92l.15-.12h0a9.24,9.24,0,0,0,3.33-7.13V17.77A2.12,2.12,0,0,0,30.63,15.62ZM29.17,34.93h0V40H19V34.93Zm-9.38-1.46V32.2h8.65v1.27ZM31.21,20.64h0A7.87,7.87,0,0,1,30.86,23a7.72,7.72,0,0,1-2.46,3.68l-.11.09a2.61,2.61,0,0,0-1,2.06v1.93H21V28.35a2.66,2.66,0,0,0-.61-1.69,8.58,8.58,0,0,1-1.56-5c-.1-1.86,0-6.59,0-7.08a.64.64,0,0,1,.64-.63h.05a.64.64,0,0,1,.64.64v4.1a.73.73,0,0,0,1.46,0V11.52a.64.64,0,0,1,.64-.64h0a.64.64,0,0,1,.64.64v7.16a.73.73,0,0,0,1.46,0V10.62A.64.64,0,0,1,25,10h0a.64.64,0,0,1,.64.64v8.06a.73.73,0,0,0,1.46,0v-6.1a.64.64,0,1,1,1.27,0V21a.31.31,0,0,1-.17.28,7.76,7.76,0,0,0-2.56,2,.73.73,0,1,0,1.15.9,6.44,6.44,0,0,1,2.07-1.6,1.77,1.77,0,0,0,1-1.58V17.73a.65.65,0,0,1,.68-.65.68.68,0,0,1,.63.69Z"/></svg>